<?xml version="1.0" encoding="UTF-8" standalone="no"?>
<!DOCTYPE svg PUBLIC "-//W3C//DTD SVG 1.1//EN" "http://www.w3.org/Graphics/SVG/1.1/DTD/svg11.dtd">
<svg width="100%" height="100%" viewBox="0 0 1024 1024" version="1.1" xmlns="http://www.w3.org/2000/svg" xmlns:xlink="http://www.w3.org/1999/xlink" xml:space="preserve" xmlns:serif="http://www.serif.com/" style="fill-rule:evenodd;clip-rule:evenodd;stroke-linecap:round;stroke-linejoin:round;stroke-miterlimit:1.5;">
    <g transform="matrix(1,0,0,1,-1096,0)">
        <g id="icon" transform="matrix(1,0,0,1,1096,0)">
            <rect x="0" y="0" width="1024" height="1024" style="fill:none;"/>
            <clipPath id="_clip1">
                <rect x="0" y="0" width="1024" height="1024"/>
            </clipPath>
            <g clip-path="url(#_clip1)">
                <g id="backing" transform="matrix(0.596505,0,0,0.596505,-185.535,-432.754)">
                    <path d="M2027.7,1103.15C2027.7,894.71 1858.48,725.484 1650.04,725.484L688.704,725.484C480.264,725.484 311.037,894.71 311.037,1103.15L311.037,2064.48C311.037,2272.92 480.264,2442.15 688.704,2442.15L1650.04,2442.15C1858.48,2442.15 2027.7,2272.92 2027.7,2064.48L2027.7,1103.15Z" style="fill:url(#_Linear2);"/>
                </g>
                <g transform="matrix(0.949065,0,0,0.949065,-996.323,14.5639)">
                    <g id="RNa" transform="matrix(1.19565,1.42827,-1.42827,1.19565,2098.28,-1048.24)">
                        <g>
                            <g>
                                <g transform="matrix(0.549906,0,0,1,236.115,0)">
                                    <rect x="429.577" y="565.17" width="82.423" height="6.734" style="fill:rgb(0,126,165);"/>
                                </g>
                                <g transform="matrix(0.697323,0,0,1,173.304,26.2988)">
                                    <rect x="429.577" y="565.17" width="82.423" height="6.734" style="fill:rgb(0,203,255);"/>
                                </g>
                                <g transform="matrix(0.549906,0,0,1,236.115,13.1494)">
                                    <rect x="429.577" y="565.17" width="82.423" height="6.734" style="fill:rgb(247,153,255);"/>
                                </g>
                                <g transform="matrix(0.740405,0,0,1,154.917,39.4481)">
                                    <rect x="429.577" y="565.17" width="82.423" height="6.734" style="fill:rgb(255,190,84);"/>
                                </g>
                            </g>
                            <g transform="matrix(1,0,0,1,-1.91161,56.1726)">
                                <g transform="matrix(0.668189,0,0,1,188.415,-3.57506)">
                                    <rect x="429.577" y="565.17" width="82.423" height="6.734" style="fill:rgb(0,126,165);"/>
                                </g>
                                <g transform="matrix(0.697323,0,0,1,175.41,22.7237)">
                                    <rect x="429.577" y="565.17" width="82.423" height="6.734" style="fill:rgb(0,203,255);"/>
                                </g>
                                <g transform="matrix(0.677004,0,0,1,185.387,9.57431)">
                                    <rect x="429.577" y="565.17" width="82.423" height="6.734" style="fill:rgb(247,153,255);"/>
                                </g>
                                <g transform="matrix(0.650169,0,0,1,193.313,35.8731)">
                                    <rect x="429.577" y="565.17" width="82.423" height="6.734" style="fill:rgb(255,190,84);"/>
                                </g>
                            </g>
                        </g>
                        <g transform="matrix(1,0,0,1,-1.91161,271.432)">
                            <g>
                                <g transform="matrix(0.549906,0,0,1,236.115,0)">
                                    <rect x="429.577" y="565.17" width="82.423" height="6.734" style="fill:rgb(0,126,165);"/>
                                </g>
                                <g transform="matrix(0.697323,0,0,1,173.304,26.2988)">
                                    <rect x="429.577" y="565.17" width="82.423" height="6.734" style="fill:rgb(0,203,255);"/>
                                </g>
                                <g transform="matrix(0.549906,0,0,1,236.115,13.1494)">
                                    <rect x="429.577" y="565.17" width="82.423" height="6.734" style="fill:rgb(247,153,255);"/>
                                </g>
                                <g transform="matrix(0.740405,0,0,1,154.917,39.4481)">
                                    <rect x="429.577" y="565.17" width="82.423" height="6.734" style="fill:rgb(255,190,84);"/>
                                </g>
                            </g>
                            <g transform="matrix(1,0,0,1,-1.91161,56.1726)">
                                <g transform="matrix(0.668189,0,0,1,188.415,-3.57506)">
                                    <rect x="429.577" y="565.17" width="82.423" height="6.734" style="fill:rgb(0,126,165);"/>
                                </g>
                                <g transform="matrix(0.697323,0,0,1,175.41,22.7237)">
                                    <rect x="429.577" y="565.17" width="82.423" height="6.734" style="fill:rgb(0,203,255);"/>
                                </g>
                                <g transform="matrix(0.677004,0,0,1,185.387,9.57431)">
                                    <rect x="429.577" y="565.17" width="82.423" height="6.734" style="fill:rgb(247,153,255);"/>
                                </g>
                                <g transform="matrix(0.650169,0,0,1,193.313,35.8731)">
                                    <rect x="429.577" y="565.17" width="82.423" height="6.734" style="fill:rgb(255,190,84);"/>
                                </g>
                            </g>
                        </g>
                        <g transform="matrix(0.795025,0,0,0.795025,97.2101,259.324)">
                            <g>
                                <g transform="matrix(0.573882,0,0,1,178.514,0)">
                                    <rect x="429.577" y="565.17" width="82.423" height="6.734" style="fill:rgb(0,203,255);"/>
                                </g>
                                <g transform="matrix(0.668189,0,0,1,130.745,26.2988)">
                                    <rect x="429.577" y="565.17" width="82.423" height="6.734" style="fill:rgb(0,126,165);"/>
                                </g>
                                <g transform="matrix(0.573882,0,0,1,178.514,13.1494)">
                                    <rect x="429.577" y="565.17" width="82.423" height="6.734" style="fill:rgb(255,190,84);"/>
                                </g>
                                <g transform="matrix(0.818168,0,0,1,52.017,39.4481)">
                                    <rect x="429.577" y="565.17" width="82.423" height="6.734" style="fill:rgb(247,153,255);"/>
                                </g>
                            </g>
                            <g transform="matrix(1,0,0,1,-1.91161,56.1726)">
                                <g transform="matrix(0.853841,0,0,1,46.7194,-3.57506)">
                                    <rect x="429.577" y="565.17" width="82.423" height="6.734" style="fill:rgb(0,203,255);"/>
                                </g>
                                <g transform="matrix(0.668189,0,0,1,132.851,22.7237)">
                                    <rect x="429.577" y="565.17" width="82.423" height="6.734" style="fill:rgb(0,126,165);"/>
                                </g>
                                <g transform="matrix(0.706522,0,0,1,114.473,9.57431)">
                                    <rect x="429.577" y="565.17" width="82.423" height="6.734" style="fill:rgb(255,190,84);"/>
                                </g>
                                <g transform="matrix(0.623005,0,0,1,153.632,35.8731)">
                                    <rect x="429.577" y="565.17" width="82.423" height="6.734" style="fill:rgb(247,153,255);"/>
                                </g>
                            </g>
                        </g>
                        <path d="M495.442,546.306C542.845,591.108 546.233,635.91 495.442,680.712M495.442,680.712C392.326,725.514 384.178,770.316 495.442,815.118M495.442,815.118C538.323,859.92 541.326,904.722 495.442,949.524" style="fill:none;stroke:rgb(255,0,85);stroke-width:11.78px;"/>
                    </g>
                    <g transform="matrix(1,0,0,1,1075.46,10.4908)">
                        <path d="M841.168,853.056C927.968,766.255 976.732,648.529 976.732,525.774C976.732,403.02 927.968,285.294 841.168,198.493L828.076,211.584C911.405,294.913 958.218,407.93 958.218,525.774C958.218,643.618 911.405,756.636 828.076,839.964L841.168,853.056Z" style="fill:rgb(199,199,199);fill-opacity:0.58;"/>
                    </g>
                    <g transform="matrix(6.12323e-17,-1,1,6.12323e-17,1076.52,1037.06)">
                        <path d="M841.168,853.056C927.968,766.255 976.732,648.529 976.732,525.774C976.732,403.02 927.968,285.294 841.168,198.493L828.076,211.584C911.405,294.913 958.218,407.93 958.218,525.774C958.218,643.618 911.405,756.636 828.076,839.964L841.168,853.056Z" style="fill:rgb(199,199,199);fill-opacity:0.58;"/>
                    </g>
                    <g transform="matrix(-1,-1.22465e-16,1.22465e-16,-1,2103.08,1037.77)">
                        <path d="M841.168,853.056C927.968,766.255 976.732,648.529 976.732,525.774C976.732,403.02 927.968,285.294 841.168,198.493L828.076,211.584C911.405,294.913 958.218,407.93 958.218,525.774C958.218,643.618 911.405,756.636 828.076,839.964L841.168,853.056Z" style="fill:rgb(199,199,199);fill-opacity:0.58;"/>
                    </g>
                    <g transform="matrix(-1.83697e-16,1,-1,-1.83697e-16,2102.03,11.2048)">
                        <path d="M841.168,853.056C927.968,766.255 976.732,648.529 976.732,525.774C976.732,403.02 927.968,285.294 841.168,198.493L828.076,211.584C911.405,294.913 958.218,407.93 958.218,525.774C958.218,643.618 911.405,756.636 828.076,839.964L841.168,853.056Z" style="fill:rgb(199,199,199);fill-opacity:0.58;"/>
                    </g>
                </g>
            </g>
        </g>
    </g>
    <defs>
        <linearGradient id="_Linear2" x1="0" y1="0" x2="1" y2="0" gradientUnits="userSpaceOnUse" gradientTransform="matrix(1493.58,1496.3,-1496.3,1493.58,432.846,825.455)"><stop offset="0" style="stop-color:rgb(254,220,180);stop-opacity:1"/><stop offset="1" style="stop-color:rgb(255,157,241);stop-opacity:1"/></linearGradient>
    </defs>
</svg>
