<?xml version="1.0" encoding="UTF-8" standalone="no"?>
<!DOCTYPE svg PUBLIC "-//W3C//DTD SVG 1.1//EN" "http://www.w3.org/Graphics/SVG/1.1/DTD/svg11.dtd">
<svg width="100%" height="100%" viewBox="0 0 1024 1024" version="1.1" xmlns="http://www.w3.org/2000/svg" xmlns:xlink="http://www.w3.org/1999/xlink" xml:space="preserve" xmlns:serif="http://www.serif.com/" style="fill-rule:evenodd;clip-rule:evenodd;stroke-linecap:round;stroke-linejoin:round;stroke-miterlimit:1.5;">
    <rect id="Artboard1" x="0" y="0" width="1024" height="1024" style="fill:none;"/>
    <g id="Artboard11" serif:id="Artboard1">
        <g transform="matrix(1.00879,0,0,1.00879,6.54149,2.79141)">
            <path d="M391.028,898.107L438.133,858.775L416.242,858.775L321.683,898.107L391.028,898.107Z" style="fill:rgb(163,162,162);"/>
        </g>
        <g transform="matrix(-1.00879,0,0,1.00879,991.344,2.79141)">
            <path d="M374.833,898.107L439.982,858.775L418.09,858.775L305.195,898.107L374.833,898.107Z" style="fill:rgb(163,162,162);"/>
        </g>
        <g transform="matrix(1.00879,0,0,1.00879,44.357,33.396)">
            <path d="M428.133,699.853L378.756,828.437L400.647,828.437L428.133,765.532L479.109,765.532L498.756,828.437L520.647,828.437L479.109,699.853L428.133,699.853Z" style="fill:rgb(163,162,162);"/>
        </g>
        <g transform="matrix(1.00879,0,0,1.00879,7.81561,-0.120302)">
            <g transform="matrix(1,0,0,1,11.4467,4.22406)">
                <g transform="matrix(1,0,0,1,15.0812,6.20519)">
                    <path d="M460.831,819.994L447.489,824.937L447.489,838.278L460.831,833.335L460.831,819.994Z" style="fill:rgb(97,97,97);"/>
                </g>
                <g transform="matrix(-1,0,0,1,910.06,6.20519)">
                    <path d="M460.831,819.994L447.489,824.937L447.489,838.278L460.831,833.335L460.831,819.994Z" style="fill:rgb(97,97,97);"/>
                </g>
            </g>
            <g transform="matrix(1,0,0,1,11.4467,-1.26249)">
                <g transform="matrix(1,0,0,1,68.4461,6.20519)">
                    <path d="M460.831,819.994L447.489,824.937L447.489,838.278L460.831,833.335L460.831,819.994Z" style="fill:rgb(97,97,97);"/>
                </g>
                <g transform="matrix(-1,0,0,1,963.425,6.20519)">
                    <path d="M460.831,819.994L447.489,824.937L447.489,838.278L460.831,833.335L460.831,819.994Z" style="fill:rgb(97,97,97);"/>
                </g>
            </g>
            <g transform="matrix(1,0,0,1,11.4467,-1.26249)">
                <g transform="matrix(1,0,0,1,41.7636,11.6917)">
                    <path d="M460.831,819.994L447.489,824.937L447.489,838.278L460.831,833.335L460.831,819.994Z" style="fill:rgb(97,97,97);"/>
                </g>
                <g transform="matrix(-1,0,0,1,936.742,11.6917)">
                    <path d="M460.831,819.994L447.489,824.937L447.489,838.278L460.831,833.335L460.831,819.994Z" style="fill:rgb(97,97,97);"/>
                </g>
            </g>
            <g transform="matrix(1,0,0,1,11.4467,2.39294)">
                <g transform="matrix(1,0,0,1,-11.6013,2.54976)">
                    <path d="M460.831,819.994L447.489,824.937L447.489,838.278L460.831,833.335L460.831,819.994Z" style="fill:rgb(97,97,97);"/>
                </g>
                <g transform="matrix(-1,0,0,1,883.377,2.54976)">
                    <path d="M460.831,819.994L447.489,824.937L447.489,838.278L460.831,833.335L460.831,819.994Z" style="fill:rgb(97,97,97);"/>
                </g>
            </g>
            <ellipse cx="487.358" cy="825.024" rx="53.365" ry="13.255" style="fill:rgb(97,97,97);"/>
        </g>
        <g transform="matrix(1.00879,0,0,1.00879,14.4818,-59.5989)">
            <g transform="matrix(1.27493,0,0,3.13105,-317.604,-580.956)">
                <path d="M657.648,325.944C657.648,322.409 650.601,319.54 641.921,319.54L610.466,319.54C601.786,319.54 594.739,322.409 594.739,325.944L594.739,409.407C594.739,412.942 601.786,415.811 610.466,415.811L641.921,415.811C650.601,415.811 657.648,412.942 657.648,409.407L657.648,325.944Z" style="fill:rgb(208,208,208);"/>
            </g>
            <g transform="matrix(1.59898,0,0,1.73421,-520.52,118.011)">
                <path d="M657.648,334.041C657.648,326.037 650.601,319.54 641.921,319.54L610.466,319.54C601.786,319.54 594.739,326.037 594.739,334.041L594.739,401.31C594.739,409.314 601.786,415.811 610.466,415.811L641.921,415.811C650.601,415.811 657.648,409.314 657.648,401.31L657.648,334.041Z" style="fill:rgb(208,208,208);"/>
            </g>
            <g transform="matrix(1.92303,0,0,1.8633,-723.436,103.886)">
                <path d="M657.648,335.771C657.648,326.813 650.601,319.54 641.921,319.54L610.466,319.54C601.786,319.54 594.739,326.813 594.739,335.771L594.739,399.58C594.739,408.538 601.786,415.811 610.466,415.811L641.921,415.811C650.601,415.811 657.648,408.538 657.648,399.58L657.648,335.771Z" style="fill:rgb(179,177,177);"/>
            </g>
        </g>
        <g transform="matrix(1.00879,0,0,1.00879,14.4818,-59.5989)">
            <g transform="matrix(1,0,0,1.2604,-5.68434e-14,-207.846)">
                <g transform="matrix(2.65586e-17,0.433734,-1.38205,8.46261e-17,1077.71,511.878)">
                    <clipPath id="_clip1">
                        <rect x="592.507" y="303.407" width="67.569" height="38.314"/>
                    </clipPath>
                    <g clip-path="url(#_clip1)">
                        <path d="M657.648,335.356C653.375,320.707 624.862,303.407 624.862,303.407C624.862,303.407 598.528,321.218 594.739,335.356C589.718,354.09 594.739,415.811 594.739,415.811L657.648,415.811C657.648,415.811 663.112,354.09 657.648,335.356Z" style="fill:rgb(179,177,177);stroke:black;stroke-width:0.2px;"/>
                    </g>
                </g>
                <g transform="matrix(2.65586e-17,0.433734,-1.38205,8.46261e-17,1038.65,511.878)">
                    <clipPath id="_clip2">
                        <rect x="592.507" y="303.407" width="67.569" height="38.314"/>
                    </clipPath>
                    <g clip-path="url(#_clip2)">
                        <path d="M657.648,335.356C653.375,320.707 624.862,303.407 624.862,303.407C624.862,303.407 598.528,321.218 594.739,335.356C589.718,354.09 594.739,415.811 594.739,415.811L657.648,415.811C657.648,415.811 663.112,354.09 657.648,335.356Z" style="fill:rgb(179,177,177);stroke:black;stroke-width:0.2px;"/>
                    </g>
                </g>
                <g transform="matrix(2.65586e-17,0.433734,-1.38205,8.46261e-17,1005.13,511.878)">
                    <clipPath id="_clip3">
                        <rect x="592.507" y="303.407" width="67.569" height="38.314"/>
                    </clipPath>
                    <g clip-path="url(#_clip3)">
                        <path d="M657.648,335.356C653.375,320.707 624.862,303.407 624.862,303.407C624.862,303.407 598.528,321.218 594.739,335.356C589.718,354.09 594.739,415.811 594.739,415.811L657.648,415.811C657.648,415.811 663.112,354.09 657.648,335.356Z" style="fill:rgb(179,177,177);stroke:black;stroke-width:0.2px;"/>
                    </g>
                </g>
            </g>
            <g transform="matrix(1.92303,0,0,1.5236,-723.436,-194.997)">
                <path d="M657.648,339.39C657.648,328.434 650.601,319.54 641.921,319.54L610.466,319.54C601.786,319.54 594.739,328.434 594.739,339.39L594.739,395.961C594.739,406.917 601.786,415.811 610.466,415.811L641.921,415.811C650.601,415.811 657.648,406.917 657.648,395.961L657.648,339.39Z" style="fill:rgb(132,115,81);"/>
            </g>
            <g transform="matrix(1.55638,0,0,1.5236,-493.842,-157.597)">
                <path d="M657.648,335.605C657.648,326.738 650.601,319.54 641.921,319.54L610.466,319.54C601.786,319.54 594.739,326.738 594.739,335.605L594.739,399.746C594.739,408.612 601.786,415.811 610.466,415.811L641.921,415.811C650.601,415.811 657.648,408.612 657.648,399.746L657.648,335.605Z" style="fill:rgb(132,115,81);"/>
            </g>
        </g>
        <g transform="matrix(1.00879,0,0,1.00879,6.62183,38.7887)">
            <path d="M428.133,699.853L321.604,862.424L390.948,862.424L428.133,765.532L549.109,765.532L601.311,862.424L670.948,862.424L549.109,699.853L428.133,699.853Z" style="fill:rgb(163,162,162);"/>
        </g>
        <g transform="matrix(1.00879,9.54705e-17,-9.54705e-17,-0.229212,6.62183,1106.47)">
            <path d="M417.095,666.431L321.604,862.424L390.948,862.424L428.133,765.532L549.109,765.532L601.311,862.424L670.948,862.424L559.416,666.431L417.095,666.431Z" style="fill:rgb(163,162,162);"/>
        </g>
        <g transform="matrix(2.31402,0,0,1.00879,-685.32,2.22248)">
            <path d="M512,244.769L512,357.968C519.829,359.172 526.849,356.814 532.168,346.98L533.342,251.531C527.302,244.228 520.131,242.242 512,244.769Z" style="fill:rgb(165,165,165);fill-opacity:0.25;"/>
        </g>
        <g transform="matrix(1.77975,0,0,1.71341,-411.777,11.335)">
            <path d="M512,244.769L512,357.968C519.829,359.172 526.849,356.814 532.168,346.98L533.342,251.531C527.302,244.228 520.131,242.242 512,244.769Z" style="fill:rgb(165,165,165);fill-opacity:0.25;"/>
        </g>
        <g transform="matrix(-0.843406,-0.476275,-0.714436,1.26515,1066.95,695.815)">
            <path d="M516.533,246.329L505.024,352.848C502.659,350.37 519.574,365.064 534.93,358.855L534.093,249.222C528.053,241.919 524.663,243.803 516.533,246.329Z" style="fill:rgb(202,199,199);fill-opacity:0.17;"/>
        </g>
        <g transform="matrix(0.78875,-0.56218,0.843297,1.18316,-70.149,765.253)">
            <path d="M516.533,246.329L505.024,352.848C502.659,350.37 519.574,365.064 534.93,358.855L534.093,249.222C528.053,241.919 524.663,243.803 516.533,246.329Z" style="fill:rgb(202,199,199);fill-opacity:0.17;"/>
        </g>
        <g transform="matrix(1.04859,0,0,1.3335,-65.456,332.625)">
            <path d="M512,244.769L512,357.968C519.829,359.172 526.849,356.814 532.168,346.98L533.342,251.531C527.302,244.228 520.131,242.242 512,244.769Z" style="fill:rgb(165,165,165);fill-opacity:0.56;"/>
        </g>
        <g transform="matrix(-1.04859,0,0,1.3335,1008.3,332.625)">
            <path d="M512,244.769L512,357.968C519.829,359.172 526.849,356.814 532.168,346.98L533.342,251.531C527.302,244.228 520.131,242.242 512,244.769Z" style="fill:rgb(165,165,165);fill-opacity:0.56;"/>
        </g>
        <g transform="matrix(-1.04859,0,0,1.3335,1066.52,332.625)">
            <path d="M512,244.769L512,357.968C519.829,359.172 526.849,356.814 532.168,346.98L533.342,251.531C527.302,244.228 520.131,242.242 512,244.769Z" style="fill:rgb(165,165,165);fill-opacity:0.56;"/>
        </g>
        <g transform="matrix(1.04859,0,0,1.3335,-7.2399,332.625)">
            <path d="M512,244.769L512,357.968C519.829,359.172 526.849,356.814 532.168,346.98L533.342,251.531C527.302,244.228 520.131,242.242 512,244.769Z" style="fill:rgb(165,165,165);fill-opacity:0.56;"/>
        </g>
        <g transform="matrix(1.00879,0,0,1.00879,6.54149,2.79141)">
            <path d="M321.683,898.107L324.869,916.421L416.242,957.183L559.496,958.47L666.262,911.17L671.028,898.107L559.496,942.64L417.175,942.64L321.683,898.107Z" style="fill:rgb(163,162,162);stroke:rgb(207,207,207);stroke-width:1.24px;"/>
        </g>
        <g transform="matrix(1.00879,0,0,1.00879,6.54149,2.79141)">
            <path d="M416.242,956.302L417.175,942.64L428.133,920.373" style="fill:none;stroke:rgb(207,207,207);stroke-width:1.24px;"/>
            <g transform="matrix(1,0,0,1,-90.5837,-17.4627)">
                <path d="M412.267,915.57L481.611,915.57" style="fill:none;stroke:rgb(207,207,207);stroke-width:1.24px;"/>
            </g>
            <g transform="matrix(1,0,0,1,189.416,-17.4627)">
                <path d="M412.267,915.57L481.611,915.57" style="fill:none;stroke:rgb(207,207,207);stroke-width:1.24px;"/>
            </g>
            <g transform="matrix(1,0,0,0.998792,100,1.11111)">
                <path d="M459.496,957.601L459.496,942.64L449.189,920.123" style="fill:none;stroke:rgb(207,207,207);stroke-width:1.24px;"/>
            </g>
            <path d="M391.028,898.107L397.328,901.837L438.647,867.123L536.242,867.123L595.49,900.596L601.39,898.107L536.242,858.775L438.133,858.775L391.028,898.107Z" style="fill:rgb(163,162,162);stroke:rgb(207,207,207);stroke-width:1.24px;"/>
            <g>
                <g transform="matrix(0.95111,1.20228e-15,1.20228e-15,1,46.535,-56.7951)">
                    <path d="M411.728,915.57L411.728,923.918" style="fill:none;stroke:rgb(207,207,207);stroke-width:1.27px;"/>
                </g>
                <g transform="matrix(0.95111,1.20228e-15,1.20228e-15,1,144.643,-56.7951)">
                    <path d="M411.728,915.57L411.728,923.918" style="fill:none;stroke:rgb(207,207,207);stroke-width:1.27px;"/>
                </g>
            </g>
        </g>
        <g transform="matrix(1.00879,0,0,1.00879,6.54149,2.79141)">
            <path d="M440.146,854.169L534.803,854.169L536.242,858.775L438.133,858.775L440.146,854.169Z" style="fill:rgb(163,162,162);stroke:rgb(207,207,207);stroke-width:1.24px;"/>
        </g>
        <g transform="matrix(1.16558,0,0,1.16558,-74.5545,-155.09)">
            <path d="M942.492,703.187L686.191,733.187L584.926,733.187L584.926,782.96L687.726,782.96L942.492,752.96L942.492,703.187Z" style="fill:rgb(151,90,90);"/>
        </g>
    </g>
</svg>
