<?xml version="1.0" encoding="UTF-8" standalone="no"?>
<!DOCTYPE svg PUBLIC "-//W3C//DTD SVG 1.1//EN" "http://www.w3.org/Graphics/SVG/1.1/DTD/svg11.dtd">
<svg width="100%" height="100%" viewBox="0 0 1024 1024" version="1.1" xmlns="http://www.w3.org/2000/svg" xmlns:xlink="http://www.w3.org/1999/xlink" xml:space="preserve" xmlns:serif="http://www.serif.com/" style="fill-rule:evenodd;clip-rule:evenodd;stroke-linejoin:round;stroke-miterlimit:2;">
    <g transform="matrix(1,0,0,1,-2149.89,-5.68434e-14)">
        <g id="Artboard1" transform="matrix(1,0,0,1,2149.89,5.68434e-14)">
            <rect x="0" y="0" width="1024" height="1024" style="fill:none;"/>
            <g transform="matrix(1.28663,0,0,1.28663,95.4758,-195.27)">
                <g transform="matrix(0.777559,0.62881,-0.62881,0.777559,-1205.45,-1442.17)">
                    <path d="M2413.99,368.134C2413.99,365.647 2411.97,363.628 2409.48,363.628L2400.47,363.628C2397.98,363.628 2395.96,365.647 2395.96,368.134L2395.96,934.732C2395.96,937.219 2397.98,939.238 2400.47,939.238L2409.48,939.238C2411.97,939.238 2413.99,937.219 2413.99,934.732L2413.99,368.134Z" style="fill:rgb(172,172,172);"/>
                </g>
                <g transform="matrix(0.777559,0.62881,-0.562376,0.695409,-1257.13,-1358.9)">
                    <path d="M2413.99,368.666C2413.99,365.885 2411.97,363.628 2409.48,363.628L2400.47,363.628C2397.98,363.628 2395.96,365.885 2395.96,368.666L2395.96,934.2C2395.96,936.981 2397.98,939.238 2400.47,939.238L2409.48,939.238C2411.97,939.238 2413.99,936.981 2413.99,934.2L2413.99,368.666Z" style="fill:rgb(139,139,139);"/>
                </g>
            </g>
            <g transform="matrix(1.28663,0,0,1.28663,95.4758,-195.27)">
                <g transform="matrix(1,0,0,1,-2149.89,-5.68434e-14)">
                    <ellipse cx="2633.3" cy="355.03" rx="95.278" ry="89.515" style="fill:rgb(139,139,139);"/>
                </g>
                <g transform="matrix(1,0,0,1,-2165.31,-15.6091)">
                    <ellipse cx="2633.3" cy="355.03" rx="95.278" ry="89.515" style="fill:rgb(172,172,172);"/>
                </g>
            </g>
            <g transform="matrix(1.28512,-0.0622755,0.0622755,1.28512,153.476,-138.015)">
                <g transform="matrix(0.777559,0.62881,-0.62881,0.777559,-1205.45,-1442.17)">
                    <path d="M2413.99,368.134C2413.99,365.647 2411.97,363.628 2409.48,363.628L2400.47,363.628C2397.98,363.628 2395.96,365.647 2395.96,368.134L2395.96,934.732C2395.96,937.219 2397.98,939.238 2400.47,939.238L2409.48,939.238C2411.97,939.238 2413.99,937.219 2413.99,934.732L2413.99,368.134Z" style="fill:rgb(172,172,172);"/>
                </g>
                <g transform="matrix(0.777559,0.62881,-0.562376,0.695409,-1257.13,-1358.9)">
                    <path d="M2413.99,368.666C2413.99,365.885 2411.97,363.628 2409.48,363.628L2400.47,363.628C2397.98,363.628 2395.96,365.885 2395.96,368.666L2395.96,934.2C2395.96,936.981 2397.98,939.238 2400.47,939.238L2409.48,939.238C2411.97,939.238 2413.99,936.981 2413.99,934.2L2413.99,368.666Z" style="fill:rgb(139,139,139);"/>
                </g>
            </g>
        </g>
    </g>
</svg>
