<?xml version="1.0" encoding="UTF-8" standalone="no"?>
<!DOCTYPE svg PUBLIC "-//W3C//DTD SVG 1.1//EN" "http://www.w3.org/Graphics/SVG/1.1/DTD/svg11.dtd">
<svg width="100%" height="100%" viewBox="0 0 1024 1024" version="1.1" xmlns="http://www.w3.org/2000/svg" xmlns:xlink="http://www.w3.org/1999/xlink" xml:space="preserve" xmlns:serif="http://www.serif.com/" style="fill-rule:evenodd;clip-rule:evenodd;stroke-linecap:round;stroke-linejoin:round;stroke-miterlimit:1.5;">
    <g transform="matrix(1,0,0,1,-1087.49,0)">
        <g id="Artboard1" transform="matrix(1,0,0,1,23.2395,0)">
            <rect x="1064.25" y="0" width="1024" height="1024" style="fill:none;"/>
            <g id="DNA" transform="matrix(1.22092,-0.258654,0.258654,1.22092,603.164,-251.814)">
                <g>
                    <g>
                        <g>
                            <g transform="matrix(0.573882,0,0,1,178.514,0)">
                                <rect x="429.577" y="565.17" width="82.423" height="6.734" style="fill:rgb(0,203,255);"/>
                            </g>
                            <g transform="matrix(0.549906,0,0,1,236.115,0)">
                                <rect x="429.577" y="565.17" width="82.423" height="6.734" style="fill:rgb(0,126,165);"/>
                            </g>
                        </g>
                        <g>
                            <g transform="matrix(0.697323,0,0,1,173.304,26.2988)">
                                <rect x="429.577" y="565.17" width="82.423" height="6.734" style="fill:rgb(0,203,255);"/>
                            </g>
                            <g transform="matrix(0.668189,0,0,1,130.745,26.2988)">
                                <rect x="429.577" y="565.17" width="82.423" height="6.734" style="fill:rgb(0,126,165);"/>
                            </g>
                        </g>
                        <g>
                            <g transform="matrix(0.573882,0,0,1,178.514,13.1494)">
                                <rect x="429.577" y="565.17" width="82.423" height="6.734" style="fill:rgb(255,190,84);"/>
                            </g>
                            <g transform="matrix(0.549906,0,0,1,236.115,13.1494)">
                                <rect x="429.577" y="565.17" width="82.423" height="6.734" style="fill:rgb(247,153,255);"/>
                            </g>
                        </g>
                        <g transform="matrix(1.29017,0,0,1,-136.422,26.2988)">
                            <g transform="matrix(0.573882,0,0,1,225.815,13.1494)">
                                <rect x="429.577" y="565.17" width="82.423" height="6.734" style="fill:rgb(255,190,84);"/>
                            </g>
                            <g transform="matrix(0.549906,0,0,1,190.79,13.1494)">
                                <rect x="429.577" y="565.17" width="82.423" height="6.734" style="fill:rgb(247,153,255);"/>
                            </g>
                        </g>
                    </g>
                    <g transform="matrix(1,0,0,1,-1.91161,56.1726)">
                        <g transform="matrix(1.2151,0,0,1,-98.4869,-3.57506)">
                            <g transform="matrix(0.573882,0,0,1,178.514,0)">
                                <rect x="429.577" y="565.17" width="82.423" height="6.734" style="fill:rgb(0,203,255);"/>
                            </g>
                            <g transform="matrix(0.549906,0,0,1,236.115,0)">
                                <rect x="429.577" y="565.17" width="82.423" height="6.734" style="fill:rgb(0,126,165);"/>
                            </g>
                        </g>
                        <g transform="matrix(1,0,0,1,2.10606,-3.57506)">
                            <g transform="matrix(0.697323,0,0,1,173.304,26.2988)">
                                <rect x="429.577" y="565.17" width="82.423" height="6.734" style="fill:rgb(0,203,255);"/>
                            </g>
                            <g transform="matrix(0.668189,0,0,1,130.745,26.2988)">
                                <rect x="429.577" y="565.17" width="82.423" height="6.734" style="fill:rgb(0,126,165);"/>
                            </g>
                        </g>
                        <g transform="matrix(1.23113,0,0,1,-105.3,-3.57506)">
                            <g transform="matrix(0.573882,0,0,1,178.514,13.1494)">
                                <rect x="429.577" y="565.17" width="82.423" height="6.734" style="fill:rgb(255,190,84);"/>
                            </g>
                            <g transform="matrix(0.549906,0,0,1,236.115,13.1494)">
                                <rect x="429.577" y="565.17" width="82.423" height="6.734" style="fill:rgb(247,153,255);"/>
                            </g>
                        </g>
                        <g transform="matrix(1.13293,0,0,1,-62.5191,22.7237)">
                            <g transform="matrix(0.573882,0,0,1,225.815,13.1494)">
                                <rect x="429.577" y="565.17" width="82.423" height="6.734" style="fill:rgb(255,190,84);"/>
                            </g>
                            <g transform="matrix(0.549906,0,0,1,190.79,13.1494)">
                                <rect x="429.577" y="565.17" width="82.423" height="6.734" style="fill:rgb(247,153,255);"/>
                            </g>
                        </g>
                    </g>
                </g>
                <g transform="matrix(1,0,0,1,-1.91161,271.432)">
                    <g>
                        <g>
                            <g transform="matrix(0.573882,0,0,1,178.514,0)">
                                <rect x="429.577" y="565.17" width="82.423" height="6.734" style="fill:rgb(0,203,255);"/>
                            </g>
                            <g transform="matrix(0.549906,0,0,1,236.115,0)">
                                <rect x="429.577" y="565.17" width="82.423" height="6.734" style="fill:rgb(0,126,165);"/>
                            </g>
                        </g>
                        <g>
                            <g transform="matrix(0.697323,0,0,1,173.304,26.2988)">
                                <rect x="429.577" y="565.17" width="82.423" height="6.734" style="fill:rgb(0,203,255);"/>
                            </g>
                            <g transform="matrix(0.668189,0,0,1,130.745,26.2988)">
                                <rect x="429.577" y="565.17" width="82.423" height="6.734" style="fill:rgb(0,126,165);"/>
                            </g>
                        </g>
                        <g>
                            <g transform="matrix(0.573882,0,0,1,178.514,13.1494)">
                                <rect x="429.577" y="565.17" width="82.423" height="6.734" style="fill:rgb(255,190,84);"/>
                            </g>
                            <g transform="matrix(0.549906,0,0,1,236.115,13.1494)">
                                <rect x="429.577" y="565.17" width="82.423" height="6.734" style="fill:rgb(247,153,255);"/>
                            </g>
                        </g>
                        <g transform="matrix(1.29017,0,0,1,-136.422,26.2988)">
                            <g transform="matrix(0.573882,0,0,1,225.815,13.1494)">
                                <rect x="429.577" y="565.17" width="82.423" height="6.734" style="fill:rgb(255,190,84);"/>
                            </g>
                            <g transform="matrix(0.549906,0,0,1,190.79,13.1494)">
                                <rect x="429.577" y="565.17" width="82.423" height="6.734" style="fill:rgb(247,153,255);"/>
                            </g>
                        </g>
                    </g>
                    <g transform="matrix(1,0,0,1,-1.91161,56.1726)">
                        <g transform="matrix(1.2151,0,0,1,-98.4869,-3.57506)">
                            <g transform="matrix(0.573882,0,0,1,178.514,0)">
                                <rect x="429.577" y="565.17" width="82.423" height="6.734" style="fill:rgb(0,203,255);"/>
                            </g>
                            <g transform="matrix(0.549906,0,0,1,236.115,0)">
                                <rect x="429.577" y="565.17" width="82.423" height="6.734" style="fill:rgb(0,126,165);"/>
                            </g>
                        </g>
                        <g transform="matrix(1,0,0,1,2.10606,-3.57506)">
                            <g transform="matrix(0.697323,0,0,1,173.304,26.2988)">
                                <rect x="429.577" y="565.17" width="82.423" height="6.734" style="fill:rgb(0,203,255);"/>
                            </g>
                            <g transform="matrix(0.668189,0,0,1,130.745,26.2988)">
                                <rect x="429.577" y="565.17" width="82.423" height="6.734" style="fill:rgb(0,126,165);"/>
                            </g>
                        </g>
                        <g transform="matrix(1.23113,0,0,1,-105.3,-3.57506)">
                            <g transform="matrix(0.573882,0,0,1,178.514,13.1494)">
                                <rect x="429.577" y="565.17" width="82.423" height="6.734" style="fill:rgb(255,190,84);"/>
                            </g>
                            <g transform="matrix(0.549906,0,0,1,236.115,13.1494)">
                                <rect x="429.577" y="565.17" width="82.423" height="6.734" style="fill:rgb(247,153,255);"/>
                            </g>
                        </g>
                        <g transform="matrix(1.13293,0,0,1,-62.5191,22.7237)">
                            <g transform="matrix(0.573882,0,0,1,225.815,13.1494)">
                                <rect x="429.577" y="565.17" width="82.423" height="6.734" style="fill:rgb(255,190,84);"/>
                            </g>
                            <g transform="matrix(0.549906,0,0,1,190.79,13.1494)">
                                <rect x="429.577" y="565.17" width="82.423" height="6.734" style="fill:rgb(247,153,255);"/>
                            </g>
                        </g>
                    </g>
                </g>
                <g transform="matrix(0.795025,0,0,0.795025,97.2101,259.324)">
                    <g>
                        <g>
                            <g transform="matrix(0.573882,0,0,1,178.514,0)">
                                <rect x="429.577" y="565.17" width="82.423" height="6.734" style="fill:rgb(0,203,255);"/>
                            </g>
                            <g transform="matrix(0.549906,0,0,1,236.115,0)">
                                <rect x="429.577" y="565.17" width="82.423" height="6.734" style="fill:rgb(0,126,165);"/>
                            </g>
                        </g>
                        <g>
                            <g transform="matrix(0.697323,0,0,1,173.304,26.2988)">
                                <rect x="429.577" y="565.17" width="82.423" height="6.734" style="fill:rgb(0,203,255);"/>
                            </g>
                            <g transform="matrix(0.668189,0,0,1,130.745,26.2988)">
                                <rect x="429.577" y="565.17" width="82.423" height="6.734" style="fill:rgb(0,126,165);"/>
                            </g>
                        </g>
                        <g>
                            <g transform="matrix(0.573882,0,0,1,178.514,13.1494)">
                                <rect x="429.577" y="565.17" width="82.423" height="6.734" style="fill:rgb(255,190,84);"/>
                            </g>
                            <g transform="matrix(0.549906,0,0,1,236.115,13.1494)">
                                <rect x="429.577" y="565.17" width="82.423" height="6.734" style="fill:rgb(247,153,255);"/>
                            </g>
                        </g>
                        <g transform="matrix(1.48783,0,0,1,-231.846,26.2988)">
                            <g transform="matrix(0.573882,0,0,1,225.815,13.1494)">
                                <rect x="429.577" y="565.17" width="82.423" height="6.734" style="fill:rgb(255,190,84);"/>
                            </g>
                            <g transform="matrix(0.549906,0,0,1,190.79,13.1494)">
                                <rect x="429.577" y="565.17" width="82.423" height="6.734" style="fill:rgb(247,153,255);"/>
                            </g>
                        </g>
                    </g>
                    <g transform="matrix(1,0,0,1,-1.91161,56.1726)">
                        <g transform="matrix(1.48783,0,0,1,-218.879,-3.57506)">
                            <g transform="matrix(0.573882,0,0,1,178.514,0)">
                                <rect x="429.577" y="565.17" width="82.423" height="6.734" style="fill:rgb(0,203,255);"/>
                            </g>
                            <g transform="matrix(0.549906,0,0,1,236.115,0)">
                                <rect x="429.577" y="565.17" width="82.423" height="6.734" style="fill:rgb(0,126,165);"/>
                            </g>
                        </g>
                        <g transform="matrix(1,0,0,1,2.10606,-3.57506)">
                            <g transform="matrix(0.697323,0,0,1,173.304,26.2988)">
                                <rect x="429.577" y="565.17" width="82.423" height="6.734" style="fill:rgb(0,203,255);"/>
                            </g>
                            <g transform="matrix(0.668189,0,0,1,130.745,26.2988)">
                                <rect x="429.577" y="565.17" width="82.423" height="6.734" style="fill:rgb(0,126,165);"/>
                            </g>
                        </g>
                        <g transform="matrix(1.23113,0,0,1,-105.3,-3.57506)">
                            <g transform="matrix(0.573882,0,0,1,178.514,13.1494)">
                                <rect x="429.577" y="565.17" width="82.423" height="6.734" style="fill:rgb(255,190,84);"/>
                            </g>
                            <g transform="matrix(0.549906,0,0,1,236.115,13.1494)">
                                <rect x="429.577" y="565.17" width="82.423" height="6.734" style="fill:rgb(247,153,255);"/>
                            </g>
                        </g>
                        <g transform="matrix(1.13293,0,0,1,-62.5191,22.7237)">
                            <g transform="matrix(0.573882,0,0,1,225.815,13.1494)">
                                <rect x="429.577" y="565.17" width="82.423" height="6.734" style="fill:rgb(255,190,84);"/>
                            </g>
                            <g transform="matrix(0.549906,0,0,1,190.79,13.1494)">
                                <rect x="429.577" y="565.17" width="82.423" height="6.734" style="fill:rgb(247,153,255);"/>
                            </g>
                        </g>
                    </g>
                </g>
                <g>
                    <path d="M445.442,546.306C402.385,591.108 396.872,635.91 445.442,680.712M445.442,680.712C558.769,725.514 567.214,770.316 445.442,815.118M445.442,815.118C404.243,859.92 400.975,904.722 445.442,949.524" style="fill:none;stroke:rgb(255,213,0);stroke-width:16.69px;"/>
                    <path d="M495.442,546.306C542.845,591.108 546.233,635.91 495.442,680.712M495.442,680.712C392.326,725.514 384.178,770.316 495.442,815.118M495.442,815.118C538.323,859.92 541.326,904.722 495.442,949.524" style="fill:none;stroke:rgb(255,0,85);stroke-width:16.69px;"/>
                </g>
            </g>
            <g id="RNa" transform="matrix(1.24802,0,0,1.24802,1199.87,-472.815)">
                <g>
                    <g>
                        <g transform="matrix(0.549906,0,0,1,236.115,0)">
                            <rect x="429.577" y="565.17" width="82.423" height="6.734" style="fill:rgb(0,126,165);"/>
                        </g>
                        <g transform="matrix(0.697323,0,0,1,173.304,26.2988)">
                            <rect x="429.577" y="565.17" width="82.423" height="6.734" style="fill:rgb(0,203,255);"/>
                        </g>
                        <g transform="matrix(0.549906,0,0,1,236.115,13.1494)">
                            <rect x="429.577" y="565.17" width="82.423" height="6.734" style="fill:rgb(247,153,255);"/>
                        </g>
                        <g transform="matrix(0.740405,0,0,1,154.917,39.4481)">
                            <rect x="429.577" y="565.17" width="82.423" height="6.734" style="fill:rgb(255,190,84);"/>
                        </g>
                    </g>
                    <g transform="matrix(1,0,0,1,-1.91161,56.1726)">
                        <g transform="matrix(0.668189,0,0,1,188.415,-3.57506)">
                            <rect x="429.577" y="565.17" width="82.423" height="6.734" style="fill:rgb(0,126,165);"/>
                        </g>
                        <g transform="matrix(0.697323,0,0,1,175.41,22.7237)">
                            <rect x="429.577" y="565.17" width="82.423" height="6.734" style="fill:rgb(0,203,255);"/>
                        </g>
                        <g transform="matrix(0.677004,0,0,1,185.387,9.57431)">
                            <rect x="429.577" y="565.17" width="82.423" height="6.734" style="fill:rgb(247,153,255);"/>
                        </g>
                        <g transform="matrix(0.650169,0,0,1,193.313,35.8731)">
                            <rect x="429.577" y="565.17" width="82.423" height="6.734" style="fill:rgb(255,190,84);"/>
                        </g>
                    </g>
                </g>
                <g transform="matrix(1,0,0,1,-1.91161,271.432)">
                    <g>
                        <g transform="matrix(0.549906,0,0,1,236.115,0)">
                            <rect x="429.577" y="565.17" width="82.423" height="6.734" style="fill:rgb(0,126,165);"/>
                        </g>
                        <g transform="matrix(0.697323,0,0,1,173.304,26.2988)">
                            <rect x="429.577" y="565.17" width="82.423" height="6.734" style="fill:rgb(0,203,255);"/>
                        </g>
                        <g transform="matrix(0.549906,0,0,1,236.115,13.1494)">
                            <rect x="429.577" y="565.17" width="82.423" height="6.734" style="fill:rgb(247,153,255);"/>
                        </g>
                        <g transform="matrix(0.740405,0,0,1,154.917,39.4481)">
                            <rect x="429.577" y="565.17" width="82.423" height="6.734" style="fill:rgb(255,190,84);"/>
                        </g>
                    </g>
                    <g transform="matrix(1,0,0,1,-1.91161,56.1726)">
                        <g transform="matrix(0.668189,0,0,1,188.415,-3.57506)">
                            <rect x="429.577" y="565.17" width="82.423" height="6.734" style="fill:rgb(0,126,165);"/>
                        </g>
                        <g transform="matrix(0.697323,0,0,1,175.41,22.7237)">
                            <rect x="429.577" y="565.17" width="82.423" height="6.734" style="fill:rgb(0,203,255);"/>
                        </g>
                        <g transform="matrix(0.677004,0,0,1,185.387,9.57431)">
                            <rect x="429.577" y="565.17" width="82.423" height="6.734" style="fill:rgb(247,153,255);"/>
                        </g>
                        <g transform="matrix(0.650169,0,0,1,193.313,35.8731)">
                            <rect x="429.577" y="565.17" width="82.423" height="6.734" style="fill:rgb(255,190,84);"/>
                        </g>
                    </g>
                </g>
                <g transform="matrix(0.795025,0,0,0.795025,97.2101,259.324)">
                    <g>
                        <g transform="matrix(0.573882,0,0,1,178.514,0)">
                            <rect x="429.577" y="565.17" width="82.423" height="6.734" style="fill:rgb(0,203,255);"/>
                        </g>
                        <g transform="matrix(0.668189,0,0,1,130.745,26.2988)">
                            <rect x="429.577" y="565.17" width="82.423" height="6.734" style="fill:rgb(0,126,165);"/>
                        </g>
                        <g transform="matrix(0.573882,0,0,1,178.514,13.1494)">
                            <rect x="429.577" y="565.17" width="82.423" height="6.734" style="fill:rgb(255,190,84);"/>
                        </g>
                        <g transform="matrix(0.818168,0,0,1,52.017,39.4481)">
                            <rect x="429.577" y="565.17" width="82.423" height="6.734" style="fill:rgb(247,153,255);"/>
                        </g>
                    </g>
                    <g transform="matrix(1,0,0,1,-1.91161,56.1726)">
                        <g transform="matrix(0.853841,0,0,1,46.7194,-3.57506)">
                            <rect x="429.577" y="565.17" width="82.423" height="6.734" style="fill:rgb(0,203,255);"/>
                        </g>
                        <g transform="matrix(0.668189,0,0,1,132.851,22.7237)">
                            <rect x="429.577" y="565.17" width="82.423" height="6.734" style="fill:rgb(0,126,165);"/>
                        </g>
                        <g transform="matrix(0.706522,0,0,1,114.473,9.57431)">
                            <rect x="429.577" y="565.17" width="82.423" height="6.734" style="fill:rgb(255,190,84);"/>
                        </g>
                        <g transform="matrix(0.623005,0,0,1,153.632,35.8731)">
                            <rect x="429.577" y="565.17" width="82.423" height="6.734" style="fill:rgb(247,153,255);"/>
                        </g>
                    </g>
                </g>
                <path d="M495.442,546.306C542.845,591.108 546.233,635.91 495.442,680.712M495.442,680.712C392.326,725.514 384.178,770.316 495.442,815.118M495.442,815.118C538.323,859.92 541.326,904.722 495.442,949.524" style="fill:none;stroke:rgb(255,0,85);stroke-width:16.69px;"/>
            </g>
            <g transform="matrix(1,0,0,1,1075.46,10.4908)">
                <path d="M841.168,853.056C927.968,766.255 976.732,648.529 976.732,525.774C976.732,403.02 927.968,285.294 841.168,198.493L828.076,211.584C911.405,294.913 958.218,407.93 958.218,525.774C958.218,643.618 911.405,756.636 828.076,839.964L841.168,853.056Z" style="fill:rgb(199,199,199);fill-opacity:0.29;"/>
            </g>
            <g transform="matrix(6.12323e-17,-1,1,6.12323e-17,1076.52,1037.06)">
                <path d="M841.168,853.056C927.968,766.255 976.732,648.529 976.732,525.774C976.732,403.02 927.968,285.294 841.168,198.493L828.076,211.584C911.405,294.913 958.218,407.93 958.218,525.774C958.218,643.618 911.405,756.636 828.076,839.964L841.168,853.056Z" style="fill:rgb(199,199,199);fill-opacity:0.29;"/>
            </g>
            <g transform="matrix(-1,-1.22465e-16,1.22465e-16,-1,2103.08,1037.77)">
                <path d="M841.168,853.056C927.968,766.255 976.732,648.529 976.732,525.774C976.732,403.02 927.968,285.294 841.168,198.493L828.076,211.584C911.405,294.913 958.218,407.93 958.218,525.774C958.218,643.618 911.405,756.636 828.076,839.964L841.168,853.056Z" style="fill:rgb(199,199,199);fill-opacity:0.29;"/>
            </g>
            <g transform="matrix(-1.83697e-16,1,-1,-1.83697e-16,2102.03,11.2048)">
                <path d="M841.168,853.056C927.968,766.255 976.732,648.529 976.732,525.774C976.732,403.02 927.968,285.294 841.168,198.493L828.076,211.584C911.405,294.913 958.218,407.93 958.218,525.774C958.218,643.618 911.405,756.636 828.076,839.964L841.168,853.056Z" style="fill:rgb(199,199,199);fill-opacity:0.29;"/>
            </g>
            <g transform="matrix(0.938664,0.344832,-0.344832,0.938664,154.374,-521.45)">
                <path d="M1510.34,343.149L1510.34,325.924L1743.59,325.924L1743.59,309.929L1768.2,334.536L1743.59,359.144L1743.59,343.149L1510.34,343.149Z" style="fill:rgb(199,199,199);fill-opacity:0.29;"/>
            </g>
            <g transform="matrix(0.90312,-0.429388,0.429388,0.90312,10.3468,1031.79)">
                <path d="M1510.34,343.149L1510.34,325.924L1743.59,325.924L1743.59,309.929L1768.2,334.536L1743.59,359.144L1743.59,343.149L1510.34,343.149Z" style="fill:rgb(199,199,199);fill-opacity:0.29;"/>
            </g>
        </g>
    </g>
</svg>
