<?xml version="1.0" encoding="UTF-8" standalone="no"?>
<!DOCTYPE svg PUBLIC "-//W3C//DTD SVG 1.1//EN" "http://www.w3.org/Graphics/SVG/1.1/DTD/svg11.dtd">
<svg width="100%" height="100%" viewBox="0 0 1024 1024" version="1.1" xmlns="http://www.w3.org/2000/svg" xmlns:xlink="http://www.w3.org/1999/xlink" xml:space="preserve" xmlns:serif="http://www.serif.com/" style="fill-rule:evenodd;clip-rule:evenodd;stroke-linecap:round;stroke-linejoin:round;stroke-miterlimit:1.5;">
    <g transform="matrix(1,0,0,1,0,-5384.56)">
        <g id="Artboard1" transform="matrix(1,0,0,1,-1064.25,5384.56)">
            <rect x="1064.25" y="0" width="1024" height="1024" style="fill:none;"/>
            <clipPath id="_clip1">
                <rect x="1064.25" y="0" width="1024" height="1024"/>
            </clipPath>
            <g clip-path="url(#_clip1)">
                <g transform="matrix(1,0,0,1,-31.8495,-4295.99)">
                    <rect x="1096.1" y="4295.99" width="1024" height="1024" style="fill:white;"/>
                </g>
                <g transform="matrix(1,0,0,1,1064.25,-5384.56)">
                    <path d="M285.002,5705.13C414.53,5687.65 492.544,5638.58 482.636,5535.6" style="fill:none;stroke:black;stroke-width:4.17px;"/>
                </g>
                <g transform="matrix(1,0,0,1,856.486,-5399.99)">
                    <text x="392.487px" y="5520.52px" style="font-family:'Noteworthy-Light', 'Noteworthy';font-weight:300;font-size:75px;">co<tspan x="462.33px 512.299px 525.518px " y="5520.52px 5520.52px 5520.52px ">min</tspan>&apos; f<tspan x="610.549px 644.955px " y="5520.52px 5520.52px ">or</tspan> you<tspan x="792.518px 818.018px " y="5520.52px 5520.52px ">r </tspan>en<tspan x="901.362px 926.862px 940.08px 962.58px 994.268px 1014.05px 1034.39px 1070.2px 1120.17px 1133.39px 1143.52px " y="5520.52px 5520.52px 5520.52px 5520.52px 5520.52px 5520.52px 5520.52px 5520.52px 5520.52px 5520.52px 5520.52px ">tire family</tspan></text>
                </g>
                <g id="RNa" transform="matrix(1.3867,0,-1.44838e-16,1.73587,551.045,-706.219)">
                    <g>
                        <g>
                            <g transform="matrix(0.549906,0,0,1,236.115,0)">
                                <rect x="429.577" y="565.17" width="82.423" height="6.734" style="fill:rgb(0,126,165);"/>
                            </g>
                            <g transform="matrix(0.697323,0,0,1,173.304,26.2988)">
                                <rect x="429.577" y="565.17" width="82.423" height="6.734" style="fill:rgb(0,203,255);"/>
                            </g>
                            <g transform="matrix(0.549906,0,0,1,236.115,13.1494)">
                                <rect x="429.577" y="565.17" width="82.423" height="6.734" style="fill:rgb(247,153,255);"/>
                            </g>
                            <g transform="matrix(0.740405,0,0,1,154.917,39.4481)">
                                <rect x="429.577" y="565.17" width="82.423" height="6.734" style="fill:rgb(255,190,84);"/>
                            </g>
                        </g>
                        <g transform="matrix(1,0,0,1,-1.91161,56.1726)">
                            <g transform="matrix(0.668189,0,0,1,188.415,-3.57506)">
                                <rect x="429.577" y="565.17" width="82.423" height="6.734" style="fill:rgb(0,126,165);"/>
                            </g>
                            <g transform="matrix(0.697323,0,0,1,175.41,22.7237)">
                                <rect x="429.577" y="565.17" width="82.423" height="6.734" style="fill:rgb(0,203,255);"/>
                            </g>
                            <g transform="matrix(0.677004,0,0,1,185.387,9.57431)">
                                <rect x="429.577" y="565.17" width="82.423" height="6.734" style="fill:rgb(247,153,255);"/>
                            </g>
                            <g transform="matrix(0.650169,0,0,1,193.313,35.8731)">
                                <rect x="429.577" y="565.17" width="82.423" height="6.734" style="fill:rgb(255,190,84);"/>
                            </g>
                        </g>
                    </g>
                    <g transform="matrix(1,0,0,1,-1.91161,271.432)">
                        <g>
                            <g transform="matrix(0.549906,0,0,1,236.115,0)">
                                <rect x="429.577" y="565.17" width="82.423" height="6.734" style="fill:rgb(0,126,165);"/>
                            </g>
                            <g transform="matrix(0.697323,0,0,1,173.304,26.2988)">
                                <rect x="429.577" y="565.17" width="82.423" height="6.734" style="fill:rgb(0,203,255);"/>
                            </g>
                            <g transform="matrix(0.549906,0,0,1,236.115,13.1494)">
                                <rect x="429.577" y="565.17" width="82.423" height="6.734" style="fill:rgb(247,153,255);"/>
                            </g>
                            <g transform="matrix(0.740405,0,0,1,154.917,39.4481)">
                                <rect x="429.577" y="565.17" width="82.423" height="6.734" style="fill:rgb(255,190,84);"/>
                            </g>
                        </g>
                        <g transform="matrix(1,0,0,1,-1.91161,56.1726)">
                            <g transform="matrix(0.668189,0,0,1,188.415,-3.57506)">
                                <rect x="429.577" y="565.17" width="82.423" height="6.734" style="fill:rgb(0,126,165);"/>
                            </g>
                            <g transform="matrix(0.697323,0,0,1,175.41,22.7237)">
                                <rect x="429.577" y="565.17" width="82.423" height="6.734" style="fill:rgb(0,203,255);"/>
                            </g>
                            <g transform="matrix(0.677004,0,0,1,185.387,9.57431)">
                                <rect x="429.577" y="565.17" width="82.423" height="6.734" style="fill:rgb(247,153,255);"/>
                            </g>
                            <g transform="matrix(0.650169,0,0,1,193.313,35.8731)">
                                <rect x="429.577" y="565.17" width="82.423" height="6.734" style="fill:rgb(255,190,84);"/>
                            </g>
                        </g>
                    </g>
                    <g transform="matrix(0.795025,0,0,0.795025,97.2101,259.324)">
                        <g>
                            <g transform="matrix(0.573882,0,0,1,178.514,0)">
                                <rect x="429.577" y="565.17" width="82.423" height="6.734" style="fill:rgb(0,203,255);"/>
                            </g>
                            <g transform="matrix(0.668189,0,0,1,130.745,26.2988)">
                                <rect x="429.577" y="565.17" width="82.423" height="6.734" style="fill:rgb(0,126,165);"/>
                            </g>
                            <g transform="matrix(0.573882,0,0,1,178.514,13.1494)">
                                <rect x="429.577" y="565.17" width="82.423" height="6.734" style="fill:rgb(255,190,84);"/>
                            </g>
                            <g transform="matrix(0.818168,0,0,1,52.017,39.4481)">
                                <rect x="429.577" y="565.17" width="82.423" height="6.734" style="fill:rgb(247,153,255);"/>
                            </g>
                        </g>
                        <g transform="matrix(1,0,0,1,-1.91161,56.1726)">
                            <g transform="matrix(0.853841,0,0,1,46.7194,-3.57506)">
                                <rect x="429.577" y="565.17" width="82.423" height="6.734" style="fill:rgb(0,203,255);"/>
                            </g>
                            <g transform="matrix(0.668189,0,0,1,132.851,22.7237)">
                                <rect x="429.577" y="565.17" width="82.423" height="6.734" style="fill:rgb(0,126,165);"/>
                            </g>
                            <g transform="matrix(0.706522,0,0,1,114.473,9.57431)">
                                <rect x="429.577" y="565.17" width="82.423" height="6.734" style="fill:rgb(255,190,84);"/>
                            </g>
                            <g transform="matrix(0.623005,0,0,1,153.632,35.8731)">
                                <rect x="429.577" y="565.17" width="82.423" height="6.734" style="fill:rgb(247,153,255);"/>
                            </g>
                        </g>
                    </g>
                    <path d="M495.442,546.306C542.845,591.108 546.233,635.91 495.442,680.712M495.442,680.712C392.326,725.514 384.178,770.316 495.442,815.118M495.442,815.118C538.323,859.92 541.326,904.722 495.442,949.524" style="fill:none;stroke:rgb(255,0,85);stroke-width:13.26px;"/>
                </g>
                <g id="Sword" transform="matrix(1.22259,0.977334,-0.977334,1.22259,-397.814,-1764.88)">
                    <g transform="matrix(1.09455,0,0,0.783321,995.852,-4086.52)">
                        <path d="M751.59,5880.38C751.59,5874.97 748.442,5870.57 744.565,5870.57L730.513,5870.57C726.636,5870.57 723.488,5874.97 723.488,5880.38L723.488,5980.72C723.488,5986.14 726.636,5990.54 730.513,5990.54L744.565,5990.54C748.442,5990.54 751.59,5986.14 751.59,5980.72L751.59,5880.38Z" style="fill:rgb(184,184,184);stroke:rgb(124,124,124);stroke-width:2.8px;"/>
                    </g>
                    <g transform="matrix(3.66486e-17,0.598517,-1,6.12323e-17,7735,78.9802)">
                        <path d="M751.59,5874.77C751.59,5872.45 748.442,5870.57 744.565,5870.57L730.513,5870.57C726.636,5870.57 723.488,5872.45 723.488,5874.77L723.488,5986.33C723.488,5988.65 726.636,5990.54 730.513,5990.54L744.565,5990.54C748.442,5990.54 751.59,5988.65 751.59,5986.33L751.59,5874.77Z" style="fill:rgb(255,0,21);stroke:black;stroke-width:3.23px;"/>
                    </g>
                    <g transform="matrix(1,0,0,1.11303,1064.25,-6024.22)">
                        <path d="M723.488,5870.57L723.488,5683.54L740.196,5659.41L754.302,5683.54L754.302,5870.57" style="fill:rgb(227,227,227);stroke:black;stroke-width:2.52px;"/>
                    </g>
                    <g transform="matrix(1,5.55112e-17,1.67363e-16,1.11303,1064.25,-6024.22)">
                        <clipPath id="_clip2">
                            <rect x="740.196" y="5659.41" width="14.106" height="211.155"/>
                        </clipPath>
                        <g clip-path="url(#_clip2)">
                            <path d="M723.488,5870.57L723.488,5683.54L740.196,5659.41L754.302,5683.54L754.302,5870.57" style="fill:rgb(158,158,158);stroke:black;stroke-width:2.52px;"/>
                        </g>
                    </g>
                </g>
                <g id="virus" transform="matrix(0.73664,0,0,0.73664,405.11,164.908)">
                    <g transform="matrix(1,0,0,1,1064.25,-2148)">
                        <path d="M685.874,2734.72C686.398,2733.13 686.355,2731.47 685.407,2729.72C674.931,2710.47 640.846,2685.05 652.6,2664.69C670.558,2633.58 710.392,2622.91 741.498,2640.87C761.772,2652.57 738.392,2683.44 739.035,2705.26C739.142,2708.89 742.344,2711.59 746.512,2713.91C748.197,2713.84 749.889,2713.8 751.59,2713.8C765.55,2713.8 778.925,2716.32 791.28,2720.93L791.28,2720.93C802.718,2702.23 807.694,2660 831.201,2660C867.119,2660 896.279,2689.16 896.279,2725.07C896.279,2748.49 857.855,2743.67 839.281,2755.14L839.281,2755.14C855.541,2774.81 865.317,2800.03 865.317,2827.53C865.317,2828.15 865.312,2828.78 865.301,2829.41C886.628,2825.95 912.491,2819.16 921.676,2835.07C939.635,2866.18 928.961,2906.01 897.856,2923.97C878.476,2935.16 863.874,2903.05 845.841,2891.15C834.678,2907.65 819.299,2921.07 801.254,2929.85C814.72,2947.78 838.952,2969.23 828.768,2986.87C810.809,3017.97 770.975,3028.65 739.87,3010.69C719.595,2998.98 742.975,2968.11 742.332,2946.3C742.267,2944.09 741.058,2942.22 739.183,2940.58C719.242,2938.41 700.842,2931.08 685.351,2919.95C676.769,2940.6 670.192,2971.25 650.166,2971.25C614.249,2971.25 585.088,2942.09 585.088,2906.17C585.088,2882.76 623.513,2887.57 642.086,2876.1C644.336,2874.72 645.338,2872.16 645.688,2869.03C640.637,2856.17 637.864,2842.17 637.864,2827.53C637.864,2825.65 637.909,2823.8 637.999,2821.94C616.652,2825.4 590.708,2832.24 581.505,2816.3C563.546,2785.2 574.219,2745.36 605.325,2727.4C625.342,2715.85 640.261,2750.48 659.131,2761.33C666.507,2751.05 675.554,2742.05 685.874,2734.72Z" style="fill:rgb(191,62,63);"/>
                    </g>
                    <g transform="matrix(0.724243,0,0,0.724243,1271.51,-1368.28)">
                        <circle cx="751.59" cy="2827.53" r="113.727" style="fill:rgb(255,0,85);"/>
                    </g>
                    <g transform="matrix(1,0,0,1,1064.25,-2148)">
                        <circle cx="754.302" cy="2788.03" r="17.975" style="fill:white;"/>
                    </g>
                    <g transform="matrix(1,0,0,1,1094.05,-2108.5)">
                        <circle cx="754.302" cy="2788.03" r="17.975" style="fill:white;"/>
                    </g>
                    <g transform="matrix(1,0,0,1,1061.54,-2072.55)">
                        <circle cx="754.302" cy="2788.03" r="17.975" style="fill:white;"/>
                    </g>
                </g>
                <g id="virus1" serif:id="virus" transform="matrix(0.340857,0,0,0.340857,1413.24,176.869)">
                    <g transform="matrix(1,0,0,1,1064.25,-2148)">
                        <path d="M685.874,2734.72C686.398,2733.13 686.355,2731.47 685.407,2729.72C674.931,2710.47 640.846,2685.05 652.6,2664.69C670.558,2633.58 710.392,2622.91 741.498,2640.87C761.772,2652.57 738.392,2683.44 739.035,2705.26C739.142,2708.89 742.344,2711.59 746.512,2713.91C748.197,2713.84 749.889,2713.8 751.59,2713.8C765.55,2713.8 778.925,2716.32 791.28,2720.93L791.28,2720.93C802.718,2702.23 807.694,2660 831.201,2660C867.119,2660 896.279,2689.16 896.279,2725.07C896.279,2748.49 857.855,2743.67 839.281,2755.14L839.281,2755.14C855.541,2774.81 865.317,2800.03 865.317,2827.53C865.317,2828.15 865.312,2828.78 865.301,2829.41C886.628,2825.95 912.491,2819.16 921.676,2835.07C939.635,2866.18 928.961,2906.01 897.856,2923.97C878.476,2935.16 863.874,2903.05 845.841,2891.15C834.678,2907.65 819.299,2921.07 801.254,2929.85C814.72,2947.78 838.952,2969.23 828.768,2986.87C810.809,3017.97 770.975,3028.65 739.87,3010.69C719.595,2998.98 742.975,2968.11 742.332,2946.3C742.267,2944.09 741.058,2942.22 739.183,2940.58C719.242,2938.41 700.842,2931.08 685.351,2919.95C676.769,2940.6 670.192,2971.25 650.166,2971.25C614.249,2971.25 585.088,2942.09 585.088,2906.17C585.088,2882.76 623.513,2887.57 642.086,2876.1C644.336,2874.72 645.338,2872.16 645.688,2869.03C640.637,2856.17 637.864,2842.17 637.864,2827.53C637.864,2825.65 637.909,2823.8 637.999,2821.94C616.652,2825.4 590.708,2832.24 581.505,2816.3C563.546,2785.2 574.219,2745.36 605.325,2727.4C625.342,2715.85 640.261,2750.48 659.131,2761.33C666.507,2751.05 675.554,2742.05 685.874,2734.72Z" style="fill:rgb(191,62,63);"/>
                    </g>
                    <g transform="matrix(0.724243,0,0,0.724243,1271.51,-1368.28)">
                        <circle cx="751.59" cy="2827.53" r="113.727" style="fill:rgb(255,0,85);"/>
                    </g>
                    <g transform="matrix(1,0,0,1,1064.25,-2148)">
                        <circle cx="754.302" cy="2788.03" r="17.975" style="fill:white;"/>
                    </g>
                    <g transform="matrix(1,0,0,1,1094.05,-2108.5)">
                        <circle cx="754.302" cy="2788.03" r="17.975" style="fill:white;"/>
                    </g>
                    <g transform="matrix(1,0,0,1,1061.54,-2072.55)">
                        <circle cx="754.302" cy="2788.03" r="17.975" style="fill:white;"/>
                    </g>
                </g>
                <g id="virus2" serif:id="virus" transform="matrix(0.36832,0,0,0.36832,1391.7,309.554)">
                    <g transform="matrix(1,0,0,1,1064.25,-2148)">
                        <path d="M685.874,2734.72C686.398,2733.13 686.355,2731.47 685.407,2729.72C674.931,2710.47 640.846,2685.05 652.6,2664.69C670.558,2633.58 710.392,2622.91 741.498,2640.87C761.772,2652.57 738.392,2683.44 739.035,2705.26C739.142,2708.89 742.344,2711.59 746.512,2713.91C748.197,2713.84 749.889,2713.8 751.59,2713.8C765.55,2713.8 778.925,2716.32 791.28,2720.93L791.28,2720.93C802.718,2702.23 807.694,2660 831.201,2660C867.119,2660 896.279,2689.16 896.279,2725.07C896.279,2748.49 857.855,2743.67 839.281,2755.14L839.281,2755.14C855.541,2774.81 865.317,2800.03 865.317,2827.53C865.317,2828.15 865.312,2828.78 865.301,2829.41C886.628,2825.95 912.491,2819.16 921.676,2835.07C939.635,2866.18 928.961,2906.01 897.856,2923.97C878.476,2935.16 863.874,2903.05 845.841,2891.15C834.678,2907.65 819.299,2921.07 801.254,2929.85C814.72,2947.78 838.952,2969.23 828.768,2986.87C810.809,3017.97 770.975,3028.65 739.87,3010.69C719.595,2998.98 742.975,2968.11 742.332,2946.3C742.267,2944.09 741.058,2942.22 739.183,2940.58C719.242,2938.41 700.842,2931.08 685.351,2919.95C676.769,2940.6 670.192,2971.25 650.166,2971.25C614.249,2971.25 585.088,2942.09 585.088,2906.17C585.088,2882.76 623.513,2887.57 642.086,2876.1C644.336,2874.72 645.338,2872.16 645.688,2869.03C640.637,2856.17 637.864,2842.17 637.864,2827.53C637.864,2825.65 637.909,2823.8 637.999,2821.94C616.652,2825.4 590.708,2832.24 581.505,2816.3C563.546,2785.2 574.219,2745.36 605.325,2727.4C625.342,2715.85 640.261,2750.48 659.131,2761.33C666.507,2751.05 675.554,2742.05 685.874,2734.72Z" style="fill:rgb(191,62,63);"/>
                    </g>
                    <g transform="matrix(0.724243,0,0,0.724243,1271.51,-1368.28)">
                        <circle cx="751.59" cy="2827.53" r="113.727" style="fill:rgb(255,0,85);"/>
                    </g>
                    <g transform="matrix(1,0,0,1,1064.25,-2148)">
                        <circle cx="754.302" cy="2788.03" r="17.975" style="fill:white;"/>
                    </g>
                    <g transform="matrix(1,0,0,1,1094.05,-2108.5)">
                        <circle cx="754.302" cy="2788.03" r="17.975" style="fill:white;"/>
                    </g>
                    <g transform="matrix(1,0,0,1,1061.54,-2072.55)">
                        <circle cx="754.302" cy="2788.03" r="17.975" style="fill:white;"/>
                    </g>
                </g>
                <g id="virus3" serif:id="virus" transform="matrix(0.540059,0,0,0.540059,903.645,83.7699)">
                    <g transform="matrix(1,0,0,1,1064.25,-2148)">
                        <path d="M685.874,2734.72C686.398,2733.13 686.355,2731.47 685.407,2729.72C674.931,2710.47 640.846,2685.05 652.6,2664.69C670.558,2633.58 710.392,2622.91 741.498,2640.87C761.772,2652.57 738.392,2683.44 739.035,2705.26C739.142,2708.89 742.344,2711.59 746.512,2713.91C748.197,2713.84 749.889,2713.8 751.59,2713.8C765.55,2713.8 778.925,2716.32 791.28,2720.93L791.28,2720.93C802.718,2702.23 807.694,2660 831.201,2660C867.119,2660 896.279,2689.16 896.279,2725.07C896.279,2748.49 857.855,2743.67 839.281,2755.14L839.281,2755.14C855.541,2774.81 865.317,2800.03 865.317,2827.53C865.317,2828.15 865.312,2828.78 865.301,2829.41C886.628,2825.95 912.491,2819.16 921.676,2835.07C939.635,2866.18 928.961,2906.01 897.856,2923.97C878.476,2935.16 863.874,2903.05 845.841,2891.15C834.678,2907.65 819.299,2921.07 801.254,2929.85C814.72,2947.78 838.952,2969.23 828.768,2986.87C810.809,3017.97 770.975,3028.65 739.87,3010.69C719.595,2998.98 742.975,2968.11 742.332,2946.3C742.267,2944.09 741.058,2942.22 739.183,2940.58C719.242,2938.41 700.842,2931.08 685.351,2919.95C676.769,2940.6 670.192,2971.25 650.166,2971.25C614.249,2971.25 585.088,2942.09 585.088,2906.17C585.088,2882.76 623.513,2887.57 642.086,2876.1C644.336,2874.72 645.338,2872.16 645.688,2869.03C640.637,2856.17 637.864,2842.17 637.864,2827.53C637.864,2825.65 637.909,2823.8 637.999,2821.94C616.652,2825.4 590.708,2832.24 581.505,2816.3C563.546,2785.2 574.219,2745.36 605.325,2727.4C625.342,2715.85 640.261,2750.48 659.131,2761.33C666.507,2751.05 675.554,2742.05 685.874,2734.72Z" style="fill:rgb(191,62,63);"/>
                    </g>
                    <g transform="matrix(0.724243,0,0,0.724243,1271.51,-1368.28)">
                        <circle cx="751.59" cy="2827.53" r="113.727" style="fill:rgb(255,0,85);"/>
                    </g>
                    <g transform="matrix(1,0,0,1,1064.25,-2148)">
                        <circle cx="754.302" cy="2788.03" r="17.975" style="fill:white;"/>
                    </g>
                    <g transform="matrix(1,0,0,1,1094.05,-2108.5)">
                        <circle cx="754.302" cy="2788.03" r="17.975" style="fill:white;"/>
                    </g>
                    <g transform="matrix(1,0,0,1,1061.54,-2072.55)">
                        <circle cx="754.302" cy="2788.03" r="17.975" style="fill:white;"/>
                    </g>
                </g>
                <g id="virus4" serif:id="virus" transform="matrix(0.540059,0,0,0.540059,974.963,383.023)">
                    <g transform="matrix(1,0,0,1,1064.25,-2148)">
                        <path d="M685.874,2734.72C686.398,2733.13 686.355,2731.47 685.407,2729.72C674.931,2710.47 640.846,2685.05 652.6,2664.69C670.558,2633.58 710.392,2622.91 741.498,2640.87C761.772,2652.57 738.392,2683.44 739.035,2705.26C739.142,2708.89 742.344,2711.59 746.512,2713.91C748.197,2713.84 749.889,2713.8 751.59,2713.8C765.55,2713.8 778.925,2716.32 791.28,2720.93L791.28,2720.93C802.718,2702.23 807.694,2660 831.201,2660C867.119,2660 896.279,2689.16 896.279,2725.07C896.279,2748.49 857.855,2743.67 839.281,2755.14L839.281,2755.14C855.541,2774.81 865.317,2800.03 865.317,2827.53C865.317,2828.15 865.312,2828.78 865.301,2829.41C886.628,2825.95 912.491,2819.16 921.676,2835.07C939.635,2866.18 928.961,2906.01 897.856,2923.97C878.476,2935.16 863.874,2903.05 845.841,2891.15C834.678,2907.65 819.299,2921.07 801.254,2929.85C814.72,2947.78 838.952,2969.23 828.768,2986.87C810.809,3017.97 770.975,3028.65 739.87,3010.69C719.595,2998.98 742.975,2968.11 742.332,2946.3C742.267,2944.09 741.058,2942.22 739.183,2940.58C719.242,2938.41 700.842,2931.08 685.351,2919.95C676.769,2940.6 670.192,2971.25 650.166,2971.25C614.249,2971.25 585.088,2942.09 585.088,2906.17C585.088,2882.76 623.513,2887.57 642.086,2876.1C644.336,2874.72 645.338,2872.16 645.688,2869.03C640.637,2856.17 637.864,2842.17 637.864,2827.53C637.864,2825.65 637.909,2823.8 637.999,2821.94C616.652,2825.4 590.708,2832.24 581.505,2816.3C563.546,2785.2 574.219,2745.36 605.325,2727.4C625.342,2715.85 640.261,2750.48 659.131,2761.33C666.507,2751.05 675.554,2742.05 685.874,2734.72Z" style="fill:rgb(191,62,63);"/>
                    </g>
                    <g transform="matrix(0.724243,0,0,0.724243,1271.51,-1368.28)">
                        <circle cx="751.59" cy="2827.53" r="113.727" style="fill:rgb(255,0,85);"/>
                    </g>
                    <g transform="matrix(1,0,0,1,1064.25,-2148)">
                        <circle cx="754.302" cy="2788.03" r="17.975" style="fill:white;"/>
                    </g>
                    <g transform="matrix(1,0,0,1,1094.05,-2108.5)">
                        <circle cx="754.302" cy="2788.03" r="17.975" style="fill:white;"/>
                    </g>
                    <g transform="matrix(1,0,0,1,1061.54,-2072.55)">
                        <circle cx="754.302" cy="2788.03" r="17.975" style="fill:white;"/>
                    </g>
                </g>
            </g>
        </g>
    </g>
</svg>
