<?xml version="1.0" encoding="UTF-8" standalone="no"?>
<!DOCTYPE svg PUBLIC "-//W3C//DTD SVG 1.1//EN" "http://www.w3.org/Graphics/SVG/1.1/DTD/svg11.dtd">
<svg width="100%" height="100%" viewBox="0 0 1024 1024" version="1.1" xmlns="http://www.w3.org/2000/svg" xmlns:xlink="http://www.w3.org/1999/xlink" xml:space="preserve" xmlns:serif="http://www.serif.com/" style="fill-rule:evenodd;clip-rule:evenodd;stroke-linecap:round;stroke-linejoin:round;stroke-miterlimit:1.5;">
    <g transform="matrix(1,0,0,1,-1096.1,-3207.42)">
        <g id="Artboard1" transform="matrix(1,0,0,1,31.8495,3207.42)">
            <rect x="1064.25" y="0" width="1024" height="1024" style="fill:none;"/>
            <g id="Protein" transform="matrix(1.10405,0,0,0.96063,831.037,-381.708)">
                <g transform="matrix(1,0,0,0.873491,0,73.7665)">
                    <path d="M428.262,597.214C469.114,549.062 546.233,635.91 495.442,680.712M495.442,680.712C392.326,725.514 384.178,770.316 495.442,815.118M495.442,815.118C512.974,833.435 523.84,851.752 527.424,870.069C532.607,896.554 522.567,923.039 495.442,949.524" style="fill:none;stroke:rgb(255,0,85);stroke-width:12.75px;"/>
                </g>
                <g transform="matrix(0.777132,-0.629338,0.549721,0.678818,-316.089,519.918)">
                    <path d="M428.262,597.214C469.114,549.062 546.233,635.91 495.442,680.712M495.442,680.712C392.326,725.514 384.178,770.316 495.442,815.118M495.442,815.118C512.974,833.435 523.84,851.752 527.424,870.069C532.607,896.554 522.567,923.039 495.442,949.524" style="fill:none;stroke:rgb(255,0,85);stroke-width:12.06px;"/>
                </g>
                <g transform="matrix(0.800148,0.599803,-0.427502,0.570295,406.5,48.2247)">
                    <path d="M428.262,597.214C469.114,549.062 546.233,635.91 495.442,680.712M495.442,680.712C392.326,725.514 384.178,770.316 495.442,815.118M495.442,815.118C512.974,833.435 523.84,851.752 527.424,870.069C532.607,896.554 522.567,923.039 495.442,949.524" style="fill:none;stroke:rgb(255,0,85);stroke-width:14.77px;"/>
                </g>
                <g transform="matrix(0.525621,-0.850719,0.525534,0.324704,-212.676,927.637)">
                    <path d="M428.262,597.214C469.114,549.062 546.233,635.91 495.442,680.712M495.442,680.712C392.326,725.514 384.178,770.316 495.442,815.118M495.442,815.118C512.974,833.435 523.84,851.752 527.424,870.069C532.607,896.554 522.567,923.039 495.442,949.524" style="fill:none;stroke:rgb(255,0,85);stroke-width:13.97px;"/>
                </g>
            </g>
            <g transform="matrix(1,0,0,1,-31.8495,-3207.42)">
                <text x="1700.52px" y="3407.58px" style="font-family:'Noteworthy-Light', 'Noteworthy';font-weight:300;font-size:100px;">b<tspan x="1741.27px 1786.4px " y="3407.58px 3407.58px ">ye</tspan></text>
            </g>
            <g transform="matrix(1,0,0,1,-44.2206,-3221.65)">
                <path d="M1569.59,3539.59C1686.24,3567.22 1751.07,3540.01 1766.83,3460.85" style="fill:none;stroke:black;stroke-width:8.33px;"/>
            </g>
            <g id="RNa" transform="matrix(1.25274,0.661535,-0.661535,1.25274,1667.07,-586.158)">
                <g>
                    <g>
                        <g transform="matrix(0.549906,0,0,1,236.115,0)">
                            <rect x="429.577" y="565.17" width="82.423" height="6.734" style="fill:rgb(0,126,165);"/>
                        </g>
                        <g transform="matrix(0.697323,0,0,1,173.304,26.2988)">
                            <rect x="429.577" y="565.17" width="82.423" height="6.734" style="fill:rgb(0,203,255);"/>
                        </g>
                        <g transform="matrix(0.549906,0,0,1,236.115,13.1494)">
                            <rect x="429.577" y="565.17" width="82.423" height="6.734" style="fill:rgb(247,153,255);"/>
                        </g>
                        <g transform="matrix(0.740405,0,0,1,154.917,39.4481)">
                            <rect x="429.577" y="565.17" width="82.423" height="6.734" style="fill:rgb(255,190,84);"/>
                        </g>
                    </g>
                    <g transform="matrix(1,0,0,1,-1.91161,56.1726)">
                        <g transform="matrix(0.668189,0,0,1,188.415,-3.57506)">
                            <rect x="429.577" y="565.17" width="82.423" height="6.734" style="fill:rgb(0,126,165);"/>
                        </g>
                        <g transform="matrix(0.697323,0,0,1,175.41,22.7237)">
                            <rect x="429.577" y="565.17" width="82.423" height="6.734" style="fill:rgb(0,203,255);"/>
                        </g>
                        <g transform="matrix(0.677004,0,0,1,185.387,9.57431)">
                            <rect x="429.577" y="565.17" width="82.423" height="6.734" style="fill:rgb(247,153,255);"/>
                        </g>
                        <g transform="matrix(0.650169,0,0,1,193.313,35.8731)">
                            <rect x="429.577" y="565.17" width="82.423" height="6.734" style="fill:rgb(255,190,84);"/>
                        </g>
                    </g>
                </g>
                <g transform="matrix(1,0,0,1,-1.91161,271.432)">
                    <g>
                        <g transform="matrix(0.549906,0,0,1,236.115,0)">
                            <rect x="429.577" y="565.17" width="82.423" height="6.734" style="fill:rgb(0,126,165);"/>
                        </g>
                        <g transform="matrix(0.697323,0,0,1,173.304,26.2988)">
                            <rect x="429.577" y="565.17" width="82.423" height="6.734" style="fill:rgb(0,203,255);"/>
                        </g>
                        <g transform="matrix(0.549906,0,0,1,236.115,13.1494)">
                            <rect x="429.577" y="565.17" width="82.423" height="6.734" style="fill:rgb(247,153,255);"/>
                        </g>
                        <g transform="matrix(0.740405,0,0,1,154.917,39.4481)">
                            <rect x="429.577" y="565.17" width="82.423" height="6.734" style="fill:rgb(255,190,84);"/>
                        </g>
                    </g>
                    <g transform="matrix(1,0,0,1,-1.91161,56.1726)">
                        <g transform="matrix(0.668189,0,0,1,188.415,-3.57506)">
                            <rect x="429.577" y="565.17" width="82.423" height="6.734" style="fill:rgb(0,126,165);"/>
                        </g>
                        <g transform="matrix(0.697323,0,0,1,175.41,22.7237)">
                            <rect x="429.577" y="565.17" width="82.423" height="6.734" style="fill:rgb(0,203,255);"/>
                        </g>
                        <g transform="matrix(0.677004,0,0,1,185.387,9.57431)">
                            <rect x="429.577" y="565.17" width="82.423" height="6.734" style="fill:rgb(247,153,255);"/>
                        </g>
                        <g transform="matrix(0.650169,0,0,1,193.313,35.8731)">
                            <rect x="429.577" y="565.17" width="82.423" height="6.734" style="fill:rgb(255,190,84);"/>
                        </g>
                    </g>
                </g>
                <g transform="matrix(0.795025,0,0,0.795025,97.2101,259.324)">
                    <g>
                        <g transform="matrix(0.573882,0,0,1,178.514,0)">
                            <rect x="429.577" y="565.17" width="82.423" height="6.734" style="fill:rgb(0,203,255);"/>
                        </g>
                        <g transform="matrix(0.668189,0,0,1,130.745,26.2988)">
                            <rect x="429.577" y="565.17" width="82.423" height="6.734" style="fill:rgb(0,126,165);"/>
                        </g>
                        <g transform="matrix(0.573882,0,0,1,178.514,13.1494)">
                            <rect x="429.577" y="565.17" width="82.423" height="6.734" style="fill:rgb(255,190,84);"/>
                        </g>
                        <g transform="matrix(0.818168,0,0,1,52.017,39.4481)">
                            <rect x="429.577" y="565.17" width="82.423" height="6.734" style="fill:rgb(247,153,255);"/>
                        </g>
                    </g>
                    <g transform="matrix(1,0,0,1,-1.91161,56.1726)">
                        <g transform="matrix(0.853841,0,0,1,46.7194,-3.57506)">
                            <rect x="429.577" y="565.17" width="82.423" height="6.734" style="fill:rgb(0,203,255);"/>
                        </g>
                        <g transform="matrix(0.668189,0,0,1,132.851,22.7237)">
                            <rect x="429.577" y="565.17" width="82.423" height="6.734" style="fill:rgb(0,126,165);"/>
                        </g>
                        <g transform="matrix(0.706522,0,0,1,114.473,9.57431)">
                            <rect x="429.577" y="565.17" width="82.423" height="6.734" style="fill:rgb(255,190,84);"/>
                        </g>
                        <g transform="matrix(0.623005,0,0,1,153.632,35.8731)">
                            <rect x="429.577" y="565.17" width="82.423" height="6.734" style="fill:rgb(247,153,255);"/>
                        </g>
                    </g>
                </g>
                <path d="M495.442,546.306C542.845,591.108 546.233,635.91 495.442,680.712M495.442,680.712C392.326,725.514 384.178,770.316 495.442,815.118M495.442,815.118C538.323,859.92 541.326,904.722 495.442,949.524" style="fill:none;stroke:rgb(255,0,85);stroke-width:14.71px;"/>
            </g>
            <g transform="matrix(1.06959,0,0,0.874576,75.6945,-2576.61)">
                <path d="M1518.49,3578.21C1518.49,3554.83 1539.61,3535.85 1565.61,3535.85C1591.61,3535.85 1612.73,3554.83 1612.73,3578.21C1625.73,3557.96 1654.57,3551.01 1677.09,3562.7C1699.61,3574.39 1707.33,3600.32 1694.33,3620.56C1716.85,3608.87 1745.69,3615.82 1758.69,3636.07C1771.69,3656.31 1763.97,3682.24 1741.45,3693.92C1767.45,3693.92 1788.56,3712.9 1788.56,3736.28C1788.56,3759.66 1767.45,3778.64 1741.45,3778.64C1763.97,3790.32 1771.69,3816.25 1758.69,3836.49C1745.69,3856.74 1716.85,3863.68 1694.33,3852C1707.33,3872.24 1699.61,3898.17 1677.09,3909.86C1654.57,3921.54 1625.73,3914.6 1612.73,3894.35C1612.73,3917.73 1591.61,3936.71 1565.61,3936.71C1539.61,3936.71 1518.49,3917.73 1518.49,3894.35C1505.49,3914.6 1476.65,3921.54 1454.13,3909.86C1431.61,3898.17 1423.89,3872.24 1436.89,3852C1414.37,3863.68 1385.53,3856.74 1372.53,3836.49C1359.53,3816.25 1367.25,3790.32 1389.77,3778.64C1363.77,3778.64 1342.66,3759.66 1342.66,3736.28C1342.66,3712.9 1363.77,3693.92 1389.77,3693.92C1367.25,3682.24 1359.53,3656.31 1372.53,3636.07C1385.53,3615.82 1414.37,3608.87 1436.89,3620.56C1423.89,3600.32 1431.61,3574.39 1454.13,3562.7C1476.65,3551.01 1505.49,3557.96 1518.49,3578.21Z" style="fill:rgb(237,237,237);stroke:rgb(187,187,187);stroke-width:8.53px;"/>
            </g>
            <g transform="matrix(1.67704,0,0,1.67704,-840.758,-5320.42)">
                <text x="1464.56px" y="3625.12px" style="font-family:'BadaBoomBB', 'BadaBoom BB', sans-serif;font-size:100px;">POOF</text>
            </g>
        </g>
    </g>
</svg>
