<?xml version="1.0" encoding="UTF-8" standalone="no"?>
<!DOCTYPE svg PUBLIC "-//W3C//DTD SVG 1.1//EN" "http://www.w3.org/Graphics/SVG/1.1/DTD/svg11.dtd">
<svg width="100%" height="100%" viewBox="0 0 1024 1024" version="1.1" xmlns="http://www.w3.org/2000/svg" xmlns:xlink="http://www.w3.org/1999/xlink" xml:space="preserve" xmlns:serif="http://www.serif.com/" style="fill-rule:evenodd;clip-rule:evenodd;stroke-linecap:round;stroke-linejoin:round;stroke-miterlimit:1.5;">
    <g transform="matrix(1,0,0,1,-1087.29,-2148)">
        <g id="Artboard1" transform="matrix(1,0,0,1,23.0379,2148)">
            <rect x="1064.25" y="0" width="1024" height="1024" style="fill:none;"/>
            <clipPath id="_clip1">
                <rect x="1064.25" y="0" width="1024" height="1024"/>
            </clipPath>
            <g clip-path="url(#_clip1)">
                <g id="Background" transform="matrix(1,0,0,1,-23.2395,-1088.57)">
                    <rect x="1087.49" y="1088.57" width="1024" height="1024" style="fill:white;"/>
                </g>
                <g transform="matrix(1,0,0,1,-67.0109,232.041)">
                    <g transform="matrix(1,0,0,1,-38.5632,-2172.54)">
                        <path d="M1510.34,2538.01L1555.49,2497.59" style="fill:none;stroke:rgb(171,146,182);stroke-width:20.83px;"/>
                    </g>
                    <g transform="matrix(-1,0,0,1,3162.42,-2172.54)">
                        <path d="M1510.34,2538.01L1555.49,2497.59" style="fill:none;stroke:rgb(171,146,182);stroke-width:20.83px;"/>
                    </g>
                    <g transform="matrix(1,0,0,1,-23.0379,-2148)">
                        <path d="M1569.59,2384.95L1569.59,2484.96L1510.34,2538.01" style="fill:none;stroke:rgb(152,62,191);stroke-width:20.83px;"/>
                    </g>
                    <g transform="matrix(-1,0,0,1,3146.89,-2148)">
                        <path d="M1569.59,2384.95L1569.59,2484.96L1510.34,2538.01" style="fill:none;stroke:rgb(152,62,191);stroke-width:20.83px;"/>
                    </g>
                </g>
                <g transform="matrix(0.478875,0.877883,-0.877883,0.478875,1136.05,-1260.88)">
                    <g transform="matrix(1,0,0,1,-38.5632,-2172.54)">
                        <path d="M1510.34,2538.01L1555.49,2497.59" style="fill:none;stroke:rgb(171,146,182);stroke-width:20.83px;"/>
                    </g>
                    <g transform="matrix(-1,0,0,1,3162.42,-2172.54)">
                        <path d="M1510.34,2538.01L1555.49,2497.59" style="fill:none;stroke:rgb(171,146,182);stroke-width:20.83px;"/>
                    </g>
                    <g transform="matrix(1,0,0,1,-23.0379,-2148)">
                        <path d="M1569.59,2384.95L1569.59,2484.96L1510.34,2538.01" style="fill:none;stroke:rgb(152,62,191);stroke-width:20.83px;"/>
                    </g>
                    <g transform="matrix(-1,0,0,1,3146.89,-2148)">
                        <path d="M1569.59,2384.95L1569.59,2484.96L1510.34,2538.01" style="fill:none;stroke:rgb(152,62,191);stroke-width:20.83px;"/>
                    </g>
                </g>
                <g transform="matrix(1,0,0,1,-675.416,-2118.73)">
                    <text x="1805.47px" y="2242.71px" style="font-family:'Noteworthy-Light', 'Noteworthy';font-weight:300;font-size:100px;">*en<tspan x="1926.35px 1968.6px 2031.22px 2077.35px " y="2242.71px 2242.71px 2242.71px 2242.71px ">emy </tspan>spo<tspan x="2232.85px 2258.35px 2287.72px 2329.97px " y="2242.71px 2242.71px 2242.71px 2242.71px ">tted</tspan>*</text>
                </g>
                <g transform="matrix(1,0,0,1,-3.86896,-1496.65)">
                    <text x="1805.47px" y="2242.71px" style="font-family:'Noteworthy-Light', 'Noteworthy';font-weight:300;font-size:100px;">on i<tspan x="1936.1px 1970.1px " y="2242.71px 2242.71px ">t!</tspan></text>
                </g>
                <g transform="matrix(1,0,0,1,-12.0646,-2148)">
                    <path d="M1351.12,2319.55C1360.18,2397.41 1411.62,2438.93 1517.95,2433.32" style="fill:none;stroke:black;stroke-width:8.33px;"/>
                </g>
                <g transform="matrix(0.450734,-0.747361,0.955212,0.576089,-1111.72,507.417)">
                    <path d="M1351.12,2319.55C1360.18,2397.41 1411.62,2438.93 1517.95,2433.32" style="fill:none;stroke:black;stroke-width:8.32px;"/>
                </g>
                <g transform="matrix(0.680302,0.732932,-0.732932,0.680302,880.328,-870.946)">
                    <g transform="matrix(1,0,0,1,-38.5632,-2172.54)">
                        <path d="M1510.34,2538.01L1555.49,2497.59" style="fill:none;stroke:rgb(171,146,182);stroke-width:20.83px;"/>
                    </g>
                    <g transform="matrix(-1,0,0,1,3162.42,-2172.54)">
                        <path d="M1510.34,2538.01L1555.49,2497.59" style="fill:none;stroke:rgb(171,146,182);stroke-width:20.83px;"/>
                    </g>
                    <g transform="matrix(1,0,0,1,-23.0379,-2148)">
                        <path d="M1569.59,2384.95L1569.59,2484.96L1510.34,2538.01" style="fill:none;stroke:rgb(152,62,191);stroke-width:20.83px;"/>
                    </g>
                    <g transform="matrix(-1,0,0,1,3146.89,-2148)">
                        <path d="M1569.59,2384.95L1569.59,2484.96L1510.34,2538.01" style="fill:none;stroke:rgb(152,62,191);stroke-width:20.83px;"/>
                    </g>
                </g>
                <g transform="matrix(0.680302,0.732932,-0.732932,0.680302,783.989,-579.237)">
                    <g transform="matrix(1,0,0,1,-38.5632,-2172.54)">
                        <path d="M1510.34,2538.01L1555.49,2497.59" style="fill:none;stroke:rgb(171,146,182);stroke-width:20.83px;"/>
                    </g>
                    <g transform="matrix(-1,0,0,1,3162.42,-2172.54)">
                        <path d="M1510.34,2538.01L1555.49,2497.59" style="fill:none;stroke:rgb(171,146,182);stroke-width:20.83px;"/>
                    </g>
                    <g transform="matrix(1,0,0,1,-23.0379,-2148)">
                        <path d="M1569.59,2384.95L1569.59,2484.96L1510.34,2538.01" style="fill:none;stroke:rgb(152,62,191);stroke-width:20.83px;"/>
                    </g>
                    <g transform="matrix(-1,0,0,1,3146.89,-2148)">
                        <path d="M1569.59,2384.95L1569.59,2484.96L1510.34,2538.01" style="fill:none;stroke:rgb(152,62,191);stroke-width:20.83px;"/>
                    </g>
                </g>
                <g transform="matrix(0.680302,0.732932,-0.732932,0.680302,489.21,-579.237)">
                    <g transform="matrix(1,0,0,1,-38.5632,-2172.54)">
                        <path d="M1510.34,2538.01L1555.49,2497.59" style="fill:none;stroke:rgb(171,146,182);stroke-width:20.83px;"/>
                    </g>
                    <g transform="matrix(-1,0,0,1,3162.42,-2172.54)">
                        <path d="M1510.34,2538.01L1555.49,2497.59" style="fill:none;stroke:rgb(171,146,182);stroke-width:20.83px;"/>
                    </g>
                    <g transform="matrix(1,0,0,1,-23.0379,-2148)">
                        <path d="M1569.59,2384.95L1569.59,2484.96L1510.34,2538.01" style="fill:none;stroke:rgb(152,62,191);stroke-width:20.83px;"/>
                    </g>
                    <g transform="matrix(-1,0,0,1,3146.89,-2148)">
                        <path d="M1569.59,2384.95L1569.59,2484.96L1510.34,2538.01" style="fill:none;stroke:rgb(152,62,191);stroke-width:20.83px;"/>
                    </g>
                </g>
                <g transform="matrix(0.700052,0,0,0.692389,-13.8426,-120.583)">
                    <g transform="matrix(0.88212,0.476239,-0.465869,0.88212,939.633,-1566.1)">
                        <path d="M1879.22,1578.24L1879.25,1655.1L1828.75,1711.22L1879.25,1655.1L1952.81,1711.22" style="fill:none;stroke:rgb(191,62,63);stroke-width:17.95px;"/>
                    </g>
                    <g transform="matrix(0.88212,0.476239,0.465869,-0.88212,-567.205,1287.08)">
                        <path d="M1879.22,1578.24L1879.25,1655.1L1828.75,1711.22L1879.25,1655.1L1952.81,1711.22" style="fill:none;stroke:rgb(191,62,63);stroke-width:17.95px;"/>
                    </g>
                </g>
                <g transform="matrix(0.700052,0,0,0.692389,-82.8024,-214.717)">
                    <g transform="matrix(0.88212,0.476239,-0.465869,0.88212,939.633,-1566.1)">
                        <path d="M1879.22,1578.24L1879.25,1655.1L1828.75,1711.22L1879.25,1655.1L1952.81,1711.22" style="fill:none;stroke:rgb(191,62,63);stroke-width:17.95px;"/>
                    </g>
                    <g transform="matrix(0.88212,0.476239,0.465869,-0.88212,-567.205,1287.08)">
                        <path d="M1879.22,1578.24L1879.25,1655.1L1828.75,1711.22L1879.25,1655.1L1952.81,1711.22" style="fill:none;stroke:rgb(191,62,63);stroke-width:17.95px;"/>
                    </g>
                </g>
                <g transform="matrix(0.700052,0,0,0.692389,-102.458,17.3241)">
                    <g transform="matrix(0.88212,0.476239,-0.465869,0.88212,939.633,-1566.1)">
                        <path d="M1879.22,1578.24L1879.25,1655.1L1828.75,1711.22L1879.25,1655.1L1952.81,1711.22" style="fill:none;stroke:rgb(191,62,63);stroke-width:17.95px;"/>
                    </g>
                    <g transform="matrix(0.88212,0.476239,0.465869,-0.88212,-567.205,1287.08)">
                        <path d="M1879.22,1578.24L1879.25,1655.1L1828.75,1711.22L1879.25,1655.1L1952.81,1711.22" style="fill:none;stroke:rgb(191,62,63);stroke-width:17.95px;"/>
                    </g>
                </g>
            </g>
        </g>
    </g>
</svg>
